<svg width="56" height="59" viewBox="0 0 56 59" fill="none" xmlns="http://www.w3.org/2000/svg">
  <ellipse cx="28" cy="29.5" rx="28" ry="29.5" fill="#3F51B5"/>
  <path d="M20.7305 30.5C21.9524 33.1563 23.9929 35.2987 26.5195 36.5781C26.7059 36.671 26.912 36.7112 27.1177 36.6948C27.3233 36.6783 27.5213 36.6058 27.6922 36.4844L31.4031 33.875C31.5671 33.7579 31.7565 33.6865 31.9538 33.6674C32.1511 33.6483 32.3497 33.6821 32.5312 33.7656L39.4781 36.9062C39.7156 37.0103 39.9139 37.1936 40.0427 37.4279C40.1714 37.6622 40.2234 37.9346 40.1906 38.2031C39.9704 40.0121 39.1316 41.6746 37.8311 42.8796C36.5306 44.0847 34.8576 44.7496 33.125 44.75C27.7709 44.75 22.6362 42.5112 18.8503 38.526C15.0644 34.5409 12.9375 29.1358 12.9375 23.5C12.9379 21.6762 13.5696 19.9151 14.7143 18.5462C15.8591 17.1772 17.4385 16.2943 19.157 16.0625C19.4121 16.028 19.6709 16.0827 19.8935 16.2183C20.1161 16.3538 20.2902 16.5626 20.3891 16.8125L23.3727 24.1406C23.4502 24.3287 23.4827 24.5339 23.4672 24.7383C23.4516 24.9426 23.3886 25.1398 23.2836 25.3125L20.8047 29.2812C20.6943 29.4607 20.6296 29.667 20.6166 29.8804C20.6036 30.0938 20.6428 30.3071 20.7305 30.5V30.5Z" stroke="white" stroke-width="2" stroke-linecap="round" stroke-linejoin="round"/>
  <path d="M31.9375 18.5H37.875V24.75" stroke="white" stroke-width="2" stroke-linecap="round" stroke-linejoin="round"/>
  <path d="M30.75 26L37.875 18.5" stroke="white" stroke-width="2" stroke-linecap="round" stroke-linejoin="round"/>
</svg>
